<svg width="33" height="33" viewBox="0 0 33 33" fill="none" xmlns="http://www.w3.org/2000/svg">
<path fill-rule="evenodd" clip-rule="evenodd" d="M4.45849 0.427085L8.25 1.37496L11.9402 0.144901C12.2224 0.0508207 12.5276 0.0508207 12.8098 0.144901L16.5 1.37496L20.1902 0.144901C20.4724 0.0508207 20.7776 0.0508207 21.0598 0.144901L24.75 1.37496L28.5415 0.427085C29.2782 0.242906 30.0248 0.690827 30.2089 1.42754C30.2362 1.53661 30.25 1.64861 30.25 1.76103V31.2389C30.25 31.9983 29.6344 32.6139 28.875 32.6139C28.7626 32.6139 28.6506 32.6001 28.5415 32.5728L24.75 31.625L21.0598 32.855C20.7776 32.9491 20.4724 32.9491 20.1902 32.855L16.5 31.625L12.8098 32.855C12.5276 32.9491 12.2224 32.9491 11.9402 32.855L8.25 31.625L4.45849 32.5728C3.72177 32.757 2.97523 32.3091 2.79105 31.5724C2.76379 31.4633 2.75 31.3513 2.75 31.2389V1.76103C2.75 1.00164 3.36561 0.386031 4.125 0.386031C4.23742 0.386031 4.34942 0.399819 4.45849 0.427085ZM5.5 3.5221V29.4778L7.58303 28.9571C8.09042 28.8302 8.62346 28.8507 9.11963 29.0161L12.375 30.1012L15.6304 29.0161C16.1949 28.8279 16.8051 28.8279 17.3696 29.0161L20.625 30.1012L23.8804 29.0161C24.3765 28.8507 24.9096 28.8302 25.417 28.9571L27.5 29.4778V3.5221L25.417 4.04286C24.9096 4.1697 24.3765 4.14923 23.8804 3.98384L20.625 2.89872L17.3696 3.98384C16.8051 4.172 16.1949 4.172 15.6304 3.98384L12.375 2.89872L9.11963 3.98384C8.62346 4.14923 8.09042 4.1697 7.58303 4.04286L5.5 3.5221ZM9.625 9.62496H23.375C24.1344 9.62496 24.75 10.2406 24.75 11C24.75 11.7594 24.1344 12.375 23.375 12.375H9.625C8.86561 12.375 8.25 11.7594 8.25 11C8.25 10.2406 8.86561 9.62496 9.625 9.62496ZM9.625 15.125H23.375C24.1344 15.125 24.75 15.7406 24.75 16.5C24.75 17.2594 24.1344 17.875 23.375 17.875H9.625C8.86561 17.875 8.25 17.2594 8.25 16.5C8.25 15.7406 8.86561 15.125 9.625 15.125ZM9.625 20.625H23.375C24.1344 20.625 24.75 21.2406 24.75 22C24.75 22.7594 24.1344 23.375 23.375 23.375H9.625C8.86561 23.375 8.25 22.7594 8.25 22C8.25 21.2406 8.86561 20.625 9.625 20.625Z" fill="white"/>
</svg>
